<?xml version="1.0" encoding="UTF-8" standalone="no"?>
<!-- Created with Inkscape (http://www.inkscape.org/) -->

<svg
   xmlns:osb="http://www.openswatchbook.org/uri/2009/osb"
   xmlns:dc="http://purl.org/dc/elements/1.1/"
   xmlns:cc="http://creativecommons.org/ns#"
   xmlns:rdf="http://www.w3.org/1999/02/22-rdf-syntax-ns#"
   xmlns:svg="http://www.w3.org/2000/svg"
   xmlns="http://www.w3.org/2000/svg"
   xmlns:sodipodi="http://sodipodi.sourceforge.net/DTD/sodipodi-0.dtd"
   xmlns:inkscape="http://www.inkscape.org/namespaces/inkscape"
   width="60"
   height="80"
   viewBox="0 0 56.250004 74.999998"
   id="svg2"
   version="1.1"
   inkscape:version="0.92.0 r15299"
   sodipodi:docname="deepWater.svg">
  <defs
     id="defs4">
    <linearGradient
       id="linearGradient4490"
       osb:paint="solid">
      <stop
         style="stop-color:#0000d7;stop-opacity:1;"
         offset="0"
         id="stop4488" />
    </linearGradient>
    <linearGradient
       id="linearGradient6048">
      <stop
         style="stop-color:#416aff;stop-opacity:0.52941179;"
         offset="0"
         id="stop6046" />
    </linearGradient>
  </defs>
  <sodipodi:namedview
     id="base"
     pagecolor="#ffffff"
     bordercolor="#666666"
     borderopacity="1.0"
     inkscape:pageopacity="0.0"
     inkscape:pageshadow="2"
     inkscape:zoom="5.6"
     inkscape:cx="46.767161"
     inkscape:cy="44.598347"
     inkscape:document-units="px"
     inkscape:current-layer="layer1"
     showgrid="false"
     units="px"
     inkscape:window-width="1366"
     inkscape:window-height="745"
     inkscape:window-x="-8"
     inkscape:window-y="-8"
     inkscape:window-maximized="1" />
  <metadata
     id="metadata7">
    <rdf:RDF>
      <cc:Work
         rdf:about="">
        <dc:format>image/svg+xml</dc:format>
        <dc:type
           rdf:resource="http://purl.org/dc/dcmitype/StillImage" />
        <dc:title />
      </cc:Work>
    </rdf:RDF>
  </metadata>
  <g
     inkscape:label="Layer 1"
     inkscape:groupmode="layer"
     id="layer1"
     transform="translate(0,-977.36223)">
    <path
       sodipodi:type="star"
       style="opacity:1;fill:none;fill-opacity:0;fill-rule:nonzero;stroke:none;stroke-width:1;stroke-linejoin:miter;stroke-miterlimit:4;stroke-dasharray:none;stroke-opacity:1"
       id="path4190"
       sodipodi:sides="6"
       sodipodi:cx="9.6428576"
       sodipodi:cy="979.14795"
       sodipodi:r1="53.505016"
       sodipodi:r2="46.336704"
       sodipodi:arg1="0.84443115"
       sodipodi:arg2="1.3680299"
       inkscape:flatsided="true"
       inkscape:rounded="0"
       inkscape:randomized="0"
       d="m 45.17857,1019.1479 -52.4088709,10.7749 -35.5357131,-40.00002 16.873159,-50.77483 52.408871,-10.77483 35.535713,40 z" />
    <path
       sodipodi:type="star"
       style="opacity:0.98999999;fill:#0000b6;fill-opacity:1;fill-rule:nonzero;stroke:#000000;stroke-width:0.71922647;stroke-linecap:butt;stroke-linejoin:round;stroke-miterlimit:1;stroke-dasharray:1.43845293, 0.71922646999999995;stroke-dashoffset:7.19226467;stroke-opacity:1;paint-order:stroke fill markers"
       id="path4192"
       sodipodi:sides="6"
       sodipodi:cx="26.249998"
       sodipodi:cy="995.21936"
       sodipodi:r1="26.402016"
       sodipodi:r2="1.1777595"
       sodipodi:arg1="1.0466167"
       sodipodi:arg2="1.5702155"
       inkscape:flatsided="true"
       inkscape:rounded="0"
       inkscape:randomized="0"
       d="m 39.464285,1018.0765 -26.402011,0.015 -13.21428714,-22.8571 13.18772414,-22.87248 26.402012,-0.0153 13.214286,22.85714 z"
       transform="matrix(0,1.4036499,-1.2104656,0,1232.8038,978.01631)"
       inkscape:transform-center-x="2.3437502"
       inkscape:transform-center-y="1.1718751" />
    <path
       style="fill:none;stroke:#000000;stroke-width:0.82581627px;stroke-linecap:butt;stroke-linejoin:miter;stroke-opacity:1"
       d="m 42.574219,1013.7276 c -2.647876,0.3721 -5.280262,0.8061 -7.916016,1.226 -2.127388,0.5559 -3.986144,1.5611 -5.84514,2.5108 -2.299236,1.2395 -4.45616,2.6275 -6.633375,3.9907 -3.629255,2.892 -7.249698,5.7906 -10.861329,8.6958 -1.042608,1.1232 -3.731401,3.6629 -4.2419081,4.9924 0.3645956,1.0152 3.6216561,0.2489 4.8922991,0.2967 4.027892,0.1298 8.057071,-0.079 12.085938,-0.035 2.400199,-0.086 23.871988,-0.044 26.260603,-0.2358 0.956457,-0.111 -18.434432,-1.9586 -18.434432,-1.9586 -1.879307,-1.6295 -3.465392,-3.538 -4.105468,-5.6907 -0.460719,-1.8993 0.407046,-3.8389 1.73249,-5.4211 1.276978,-1.5243 3.256919,-2.585 5.315871,-3.3959 2.611075,-1.1167 5.309677,-2.1025 7.961404,-3.1585 0.963953,-0.1552 4.386714,-1.2886 3.57182,-1.6971 -0.164919,-0.096 -3.577258,-0.145 -3.782757,-0.12 z"
       id="path4494"
       inkscape:connector-curvature="0"
       sodipodi:nodetypes="cccccccccccccccc" />
  </g>
</svg>
