<?xml version="1.0" encoding="UTF-8" standalone="no"?>
<!-- Created with Inkscape (http://www.inkscape.org/) -->

<svg
   xmlns:osb="http://www.openswatchbook.org/uri/2009/osb"
   xmlns:dc="http://purl.org/dc/elements/1.1/"
   xmlns:cc="http://creativecommons.org/ns#"
   xmlns:rdf="http://www.w3.org/1999/02/22-rdf-syntax-ns#"
   xmlns:svg="http://www.w3.org/2000/svg"
   xmlns="http://www.w3.org/2000/svg"
   xmlns:xlink="http://www.w3.org/1999/xlink"
   xmlns:sodipodi="http://sodipodi.sourceforge.net/DTD/sodipodi-0.dtd"
   xmlns:inkscape="http://www.inkscape.org/namespaces/inkscape"
   width="60"
   height="80"
   viewBox="0 0 56.250004 74.999998"
   id="svg2"
   version="1.1"
   inkscape:version="0.92.0 r15299"
   sodipodi:docname="shallow.svg">
  <defs
     id="defs4">
    <linearGradient
       id="linearGradient6048"
       osb:paint="solid">
      <stop
         style="stop-color:#416aff;stop-opacity:0.52941179;"
         offset="0"
         id="stop6046" />
    </linearGradient>
    <linearGradient
       inkscape:collect="always"
       xlink:href="#linearGradient6048"
       id="linearGradient6054"
       gradientUnits="userSpaceOnUse"
       x1="-0.46355173"
       y1="995.21936"
       x2="52.963548"
       y2="995.21936" />
  </defs>
  <sodipodi:namedview
     id="base"
     pagecolor="#ffffff"
     bordercolor="#666666"
     borderopacity="1.0"
     inkscape:pageopacity="0.0"
     inkscape:pageshadow="2"
     inkscape:zoom="5.6"
     inkscape:cx="-7.5"
     inkscape:cy="44.598347"
     inkscape:document-units="px"
     inkscape:current-layer="layer1"
     showgrid="false"
     units="px"
     inkscape:window-width="1366"
     inkscape:window-height="745"
     inkscape:window-x="-8"
     inkscape:window-y="-8"
     inkscape:window-maximized="1" />
  <metadata
     id="metadata7">
    <rdf:RDF>
      <cc:Work
         rdf:about="">
        <dc:format>image/svg+xml</dc:format>
        <dc:type
           rdf:resource="http://purl.org/dc/dcmitype/StillImage" />
        <dc:title />
      </cc:Work>
    </rdf:RDF>
  </metadata>
  <g
     inkscape:label="Layer 1"
     inkscape:groupmode="layer"
     id="layer1"
     transform="translate(0,-977.36223)">
    <path
       sodipodi:type="star"
       style="opacity:1;fill:none;fill-opacity:0;fill-rule:nonzero;stroke:none;stroke-width:1;stroke-linejoin:miter;stroke-miterlimit:4;stroke-dasharray:none;stroke-opacity:1"
       id="path4190"
       sodipodi:sides="6"
       sodipodi:cx="9.6428576"
       sodipodi:cy="979.14795"
       sodipodi:r1="53.505016"
       sodipodi:r2="46.336704"
       sodipodi:arg1="0.84443115"
       sodipodi:arg2="1.3680299"
       inkscape:flatsided="true"
       inkscape:rounded="0"
       inkscape:randomized="0"
       d="m 45.17857,1019.1479 -52.4088709,10.7749 -35.5357131,-40.00002 16.873159,-50.77483 52.408871,-10.77483 35.535713,40 z" />
    <path
       sodipodi:type="star"
       style="opacity:0.98999999;fill:url(#linearGradient6054);fill-opacity:1;fill-rule:nonzero;stroke:#000000;stroke-width:0.71922647;stroke-linecap:butt;stroke-linejoin:round;stroke-miterlimit:1;stroke-dasharray:1.43845293, 0.71922646999999995;stroke-dashoffset:7.19226467;stroke-opacity:1;paint-order:stroke fill markers"
       id="path4192"
       sodipodi:sides="6"
       sodipodi:cx="26.249998"
       sodipodi:cy="995.21936"
       sodipodi:r1="26.402016"
       sodipodi:r2="1.1777595"
       sodipodi:arg1="1.0466167"
       sodipodi:arg2="1.5702155"
       inkscape:flatsided="true"
       inkscape:rounded="0"
       inkscape:randomized="0"
       d="m 39.464285,1018.0765 -26.402011,0.015 -13.21428714,-22.8571 13.18772414,-22.87248 26.402012,-0.0153 13.214286,22.85714 z"
       transform="matrix(0,1.4036499,-1.2104656,0,1232.8038,978.01631)"
       inkscape:transform-center-x="2.3437502"
       inkscape:transform-center-y="1.1718751" />
    <path
       style="opacity:1;fill:#814fff;fill-opacity:1;fill-rule:nonzero;stroke:#0052a9;stroke-width:1;stroke-linecap:butt;stroke-linejoin:round;stroke-miterlimit:1;stroke-dasharray:0, 11;stroke-dashoffset:9.375;stroke-opacity:1;paint-order:stroke fill markers"
       d="M 26.859375 40.916016 A 0.98214287 0.98214287 0 0 0 25.876953 41.898438 A 0.98214287 0.98214287 0 0 0 26.859375 42.880859 A 0.98214287 0.98214287 0 0 0 27.841797 41.898438 A 0.98214287 0.98214287 0 0 0 26.859375 40.916016 z M 13.902344 42.035156 A 0.98214287 0.98214287 0 0 0 12.919922 43.017578 A 0.98214287 0.98214287 0 0 0 13.902344 44 A 0.98214287 0.98214287 0 0 0 14.882812 43.017578 A 0.98214287 0.98214287 0 0 0 13.902344 42.035156 z M 9.7304688 44.066406 A 0.98214287 0.98214287 0 0 0 8.7480469 45.048828 A 0.98214287 0.98214287 0 0 0 9.7304688 46.03125 A 0.98214287 0.98214287 0 0 0 10.712891 45.048828 A 0.98214287 0.98214287 0 0 0 9.7304688 44.066406 z M 50.267578 44.076172 A 0.98214287 0.98214287 0 0 0 49.285156 45.058594 A 0.98214287 0.98214287 0 0 0 50.267578 46.041016 A 0.98214287 0.98214287 0 0 0 51.248047 45.058594 A 0.98214287 0.98214287 0 0 0 50.267578 44.076172 z M 38.410156 44.908203 A 0.98214287 0.98214287 0 0 0 37.427734 45.890625 A 0.98214287 0.98214287 0 0 0 38.410156 46.871094 A 0.98214287 0.98214287 0 0 0 39.392578 45.890625 A 0.98214287 0.98214287 0 0 0 38.410156 44.908203 z M 39.980469 46.361328 A 0.98214287 0.98214287 0 0 0 38.998047 47.34375 A 0.98214287 0.98214287 0 0 0 39.980469 48.326172 A 0.98214287 0.98214287 0 0 0 40.826172 47.841797 A 0.98214287 0.98214287 0 0 0 41.697266 48.369141 A 0.98214287 0.98214287 0 0 0 42.679688 47.386719 A 0.98214287 0.98214287 0 0 0 41.697266 46.404297 A 0.98214287 0.98214287 0 0 0 40.851562 46.890625 A 0.98214287 0.98214287 0 0 0 39.980469 46.361328 z M 48.091797 46.773438 A 0.98214287 0.98214287 0 0 0 47.109375 47.755859 A 0.98214287 0.98214287 0 0 0 47.261719 48.279297 A 0.98214287 0.98214287 0 0 0 46.910156 48.214844 A 0.98214287 0.98214287 0 0 0 45.929688 49.197266 A 0.98214287 0.98214287 0 0 0 46.910156 50.179688 A 0.98214287 0.98214287 0 0 0 47.892578 49.197266 A 0.98214287 0.98214287 0 0 0 47.738281 48.669922 A 0.98214287 0.98214287 0 0 0 48.091797 48.738281 A 0.98214287 0.98214287 0 0 0 49.074219 47.755859 A 0.98214287 0.98214287 0 0 0 48.091797 46.773438 z M 8.7324219 48.214844 A 0.98214287 0.98214287 0 0 0 7.7519531 49.197266 A 0.98214287 0.98214287 0 0 0 8.7324219 50.179688 A 0.98214287 0.98214287 0 0 0 9.7148438 49.197266 A 0.98214287 0.98214287 0 0 0 8.7324219 48.214844 z M 41.757812 48.539062 A 0.98214287 0.98214287 0 0 0 40.775391 49.521484 A 0.98214287 0.98214287 0 0 0 40.775391 49.53125 A 0.98214287 0.98214287 0 0 0 40.066406 49.228516 A 0.98214287 0.98214287 0 0 0 39.085938 50.210938 A 0.98214287 0.98214287 0 0 0 39.091797 50.310547 A 0.98214287 0.98214287 0 0 0 39.070312 50.308594 A 0.98214287 0.98214287 0 0 0 38.087891 51.291016 A 0.98214287 0.98214287 0 0 0 39.070312 52.273438 A 0.98214287 0.98214287 0 0 0 40.052734 51.291016 A 0.98214287 0.98214287 0 0 0 40.044922 51.191406 A 0.98214287 0.98214287 0 0 0 40.066406 51.191406 A 0.98214287 0.98214287 0 0 0 41.048828 50.210938 A 0.98214287 0.98214287 0 0 0 41.048828 50.199219 A 0.98214287 0.98214287 0 0 0 41.757812 50.503906 A 0.98214287 0.98214287 0 0 0 42.740234 49.521484 A 0.98214287 0.98214287 0 0 0 41.757812 48.539062 z M 16.212891 49.244141 A 0.98214287 0.98214287 0 0 0 15.230469 50.226562 A 0.98214287 0.98214287 0 0 0 16.212891 51.207031 A 0.98214287 0.98214287 0 0 0 17.195312 50.226562 A 0.98214287 0.98214287 0 0 0 16.212891 49.244141 z M 48.904297 49.607422 A 0.98214287 0.98214287 0 0 0 47.923828 50.587891 A 0.98214287 0.98214287 0 0 0 48.904297 51.570312 A 0.98214287 0.98214287 0 0 0 49.886719 50.587891 A 0.98214287 0.98214287 0 0 0 48.904297 49.607422 z M 35.392578 50.228516 A 0.98214287 0.98214287 0 0 0 34.410156 51.210938 A 0.98214287 0.98214287 0 0 0 35.392578 52.193359 A 0.98214287 0.98214287 0 0 0 36.375 51.210938 A 0.98214287 0.98214287 0 0 0 35.392578 50.228516 z M 43.34375 50.431641 A 0.98214287 0.98214287 0 0 0 42.361328 51.414062 A 0.98214287 0.98214287 0 0 0 43.34375 52.396484 A 0.98214287 0.98214287 0 0 0 44.324219 51.414062 A 0.98214287 0.98214287 0 0 0 43.34375 50.431641 z M 20.962891 51.126953 A 0.98214287 0.98214287 0 0 0 19.980469 52.109375 A 0.98214287 0.98214287 0 0 0 20.962891 53.091797 A 0.98214287 0.98214287 0 0 0 21.121094 53.078125 A 0.98214287 0.98214287 0 0 0 22.083984 53.863281 A 0.98214287 0.98214287 0 0 0 23.066406 52.880859 A 0.98214287 0.98214287 0 0 0 23.019531 52.580078 A 0.98214287 0.98214287 0 0 0 23.132812 52.125 A 0.98214287 0.98214287 0 0 0 22.150391 51.142578 A 0.98214287 0.98214287 0 0 0 21.568359 51.333984 A 0.98214287 0.98214287 0 0 0 20.962891 51.126953 z M 12.675781 51.257812 A 0.98214287 0.98214287 0 0 0 11.693359 52.240234 A 0.98214287 0.98214287 0 0 0 12.675781 53.222656 A 0.98214287 0.98214287 0 0 0 13.658203 52.240234 A 0.98214287 0.98214287 0 0 0 12.675781 51.257812 z M 9.0683594 51.703125 A 0.98214287 0.98214287 0 0 0 8.0996094 52.523438 A 0.98214287 0.98214287 0 0 0 7.34375 53.476562 A 0.98214287 0.98214287 0 0 0 7.875 54.349609 A 0.98214287 0.98214287 0 0 0 8.796875 54.996094 A 0.98214287 0.98214287 0 0 0 9.7792969 54.013672 A 0.98214287 0.98214287 0 0 0 9.6289062 53.492188 A 0.98214287 0.98214287 0 0 0 10.050781 52.685547 A 0.98214287 0.98214287 0 0 0 9.0683594 51.703125 z M 4.15625 53.681641 A 0.98214287 0.98214287 0 0 0 3.1738281 54.664062 A 0.98214287 0.98214287 0 0 0 4.15625 55.646484 A 0.98214287 0.98214287 0 0 0 5.1386719 54.664062 A 0.98214287 0.98214287 0 0 0 4.15625 53.681641 z M 23.267578 53.892578 A 0.98214287 0.98214287 0 0 0 22.285156 54.875 A 0.98214287 0.98214287 0 0 0 23.267578 55.857422 A 0.98214287 0.98214287 0 0 0 23.457031 55.837891 A 0.98214287 0.98214287 0 0 0 24.373047 56.46875 A 0.98214287 0.98214287 0 0 0 25.355469 55.486328 A 0.98214287 0.98214287 0 0 0 24.373047 54.503906 A 0.98214287 0.98214287 0 0 0 24.183594 54.523438 A 0.98214287 0.98214287 0 0 0 23.267578 53.892578 z M 44.984375 53.955078 A 0.98214287 0.98214287 0 0 0 44.005859 54.867188 A 0.98214287 0.98214287 0 0 0 43.634766 54.792969 A 0.98214287 0.98214287 0 0 0 42.652344 55.775391 A 0.98214287 0.98214287 0 0 0 43.634766 56.757812 A 0.98214287 0.98214287 0 0 0 44.615234 55.847656 A 0.98214287 0.98214287 0 0 0 44.984375 55.917969 A 0.98214287 0.98214287 0 0 0 45.966797 54.9375 A 0.98214287 0.98214287 0 0 0 44.984375 53.955078 z M 41.648438 54.375 A 0.98214287 0.98214287 0 0 0 40.667969 55.357422 A 0.98214287 0.98214287 0 0 0 41.648438 56.339844 A 0.98214287 0.98214287 0 0 0 42.630859 55.357422 A 0.98214287 0.98214287 0 0 0 41.648438 54.375 z M 18.427734 54.398438 A 0.98214287 0.98214287 0 0 0 17.445312 55.380859 A 0.98214287 0.98214287 0 0 0 18.427734 56.363281 A 0.98214287 0.98214287 0 0 0 18.439453 56.363281 A 0.98214287 0.98214287 0 0 0 18.431641 56.490234 A 0.98214287 0.98214287 0 0 0 19.414062 57.472656 A 0.98214287 0.98214287 0 0 0 20.125 57.166016 A 0.98214287 0.98214287 0 0 0 20.34375 57.191406 A 0.98214287 0.98214287 0 0 0 21.326172 56.208984 A 0.98214287 0.98214287 0 0 0 20.34375 55.226562 A 0.98214287 0.98214287 0 0 0 19.632812 55.533203 A 0.98214287 0.98214287 0 0 0 19.414062 55.507812 A 0.98214287 0.98214287 0 0 0 19.400391 55.507812 A 0.98214287 0.98214287 0 0 0 19.410156 55.380859 A 0.98214287 0.98214287 0 0 0 18.427734 54.398438 z M 28.744141 55.861328 A 0.98214287 0.98214287 0 0 0 27.763672 56.84375 A 0.98214287 0.98214287 0 0 0 28.744141 57.824219 A 0.98214287 0.98214287 0 0 0 29.726562 56.84375 A 0.98214287 0.98214287 0 0 0 28.744141 55.861328 z M 55.546875 56.265625 A 0.98214287 0.98214287 0 0 0 54.564453 57.248047 A 0.98214287 0.98214287 0 0 0 55.546875 58.230469 A 0.98214287 0.98214287 0 0 0 56.529297 57.248047 A 0.98214287 0.98214287 0 0 0 55.546875 56.265625 z M 25.457031 56.599609 A 0.98214287 0.98214287 0 0 0 24.474609 57.582031 A 0.98214287 0.98214287 0 0 0 25.457031 58.564453 A 0.98214287 0.98214287 0 0 0 26.439453 57.582031 A 0.98214287 0.98214287 0 0 0 25.457031 56.599609 z M 11.341797 57.933594 A 0.98214287 0.98214287 0 0 0 10.359375 58.916016 A 0.98214287 0.98214287 0 0 0 10.716797 59.673828 A 0.98214287 0.98214287 0 0 0 10.644531 60.042969 A 0.98214287 0.98214287 0 0 0 11.626953 61.025391 A 0.98214287 0.98214287 0 0 0 12.607422 60.042969 A 0.98214287 0.98214287 0 0 0 12.251953 59.287109 A 0.98214287 0.98214287 0 0 0 12.324219 58.916016 A 0.98214287 0.98214287 0 0 0 11.341797 57.933594 z M 34.960938 58.044922 A 0.98214287 0.98214287 0 0 0 33.978516 59.027344 A 0.98214287 0.98214287 0 0 0 34.960938 60.009766 A 0.98214287 0.98214287 0 0 0 35.943359 59.027344 A 0.98214287 0.98214287 0 0 0 34.960938 58.044922 z M 39.542969 58.238281 A 0.98214287 0.98214287 0 0 0 38.560547 59.220703 A 0.98214287 0.98214287 0 0 0 39.542969 60.201172 A 0.98214287 0.98214287 0 0 0 40.525391 59.220703 A 0.98214287 0.98214287 0 0 0 39.542969 58.238281 z M 28.914062 59.666016 A 0.98214287 0.98214287 0 0 0 27.931641 60.648438 A 0.98214287 0.98214287 0 0 0 28.914062 61.630859 A 0.98214287 0.98214287 0 0 0 29.896484 60.648438 A 0.98214287 0.98214287 0 0 0 28.914062 59.666016 z M 47.941406 59.808594 A 0.98214287 0.98214287 0 0 0 46.958984 60.791016 A 0.98214287 0.98214287 0 0 0 47.941406 61.771484 A 0.98214287 0.98214287 0 0 0 48.923828 60.791016 A 0.98214287 0.98214287 0 0 0 47.941406 59.808594 z M 36.423828 60.994141 A 0.98214287 0.98214287 0 0 0 35.441406 61.976562 A 0.98214287 0.98214287 0 0 0 36.423828 62.958984 A 0.98214287 0.98214287 0 0 0 37.404297 61.976562 A 0.98214287 0.98214287 0 0 0 36.423828 60.994141 z M 28.041016 62.470703 A 0.98214287 0.98214287 0 0 0 27.060547 63.453125 A 0.98214287 0.98214287 0 0 0 28.041016 64.435547 A 0.98214287 0.98214287 0 0 0 29.023438 63.453125 A 0.98214287 0.98214287 0 0 0 28.041016 62.470703 z M 15.970703 63.099609 A 0.98214287 0.98214287 0 0 0 14.988281 64.082031 A 0.98214287 0.98214287 0 0 0 15.970703 65.0625 A 0.98214287 0.98214287 0 0 0 16.953125 64.082031 A 0.98214287 0.98214287 0 0 0 15.970703 63.099609 z M 30.576172 63.107422 A 0.98214287 0.98214287 0 0 0 29.59375 64.089844 A 0.98214287 0.98214287 0 0 0 30.576172 65.072266 A 0.98214287 0.98214287 0 0 0 31.558594 64.089844 A 0.98214287 0.98214287 0 0 0 30.576172 63.107422 z M 45.917969 63.580078 A 0.98214287 0.98214287 0 0 0 44.935547 64.5625 A 0.98214287 0.98214287 0 0 0 45.917969 65.544922 A 0.98214287 0.98214287 0 0 0 46.900391 64.5625 A 0.98214287 0.98214287 0 0 0 45.917969 63.580078 z M 32.986328 63.634766 A 0.98214287 0.98214287 0 0 0 32.003906 64.617188 A 0.98214287 0.98214287 0 0 0 32.986328 65.599609 A 0.98214287 0.98214287 0 0 0 33.96875 64.617188 A 0.98214287 0.98214287 0 0 0 32.986328 63.634766 z M 22.496094 63.667969 A 0.98214287 0.98214287 0 0 0 21.515625 64.650391 A 0.98214287 0.98214287 0 0 0 22.34375 65.619141 A 0.98214287 0.98214287 0 0 0 23.322266 66.548828 A 0.98214287 0.98214287 0 0 0 24.304688 65.566406 A 0.98214287 0.98214287 0 0 0 23.476562 64.597656 A 0.98214287 0.98214287 0 0 0 22.496094 63.667969 z M 33.263672 66.3125 A 0.98214287 0.98214287 0 0 0 32.28125 67.294922 A 0.98214287 0.98214287 0 0 0 33.263672 68.277344 A 0.98214287 0.98214287 0 0 0 34.246094 67.294922 A 0.98214287 0.98214287 0 0 0 33.263672 66.3125 z M 37.623047 66.599609 A 0.98214287 0.98214287 0 0 0 36.640625 67.582031 A 0.98214287 0.98214287 0 0 0 37.623047 68.564453 A 0.98214287 0.98214287 0 0 0 38.603516 67.582031 A 0.98214287 0.98214287 0 0 0 37.623047 66.599609 z M 30.566406 68.841797 A 0.98214287 0.98214287 0 0 0 29.583984 69.824219 A 0.98214287 0.98214287 0 0 0 30.566406 70.806641 A 0.98214287 0.98214287 0 0 0 31.546875 69.824219 A 0.98214287 0.98214287 0 0 0 30.566406 68.841797 z M 30.894531 73.525391 A 0.98214287 0.98214287 0 0 0 29.912109 74.507812 A 0.98214287 0.98214287 0 0 0 30.894531 75.490234 A 0.98214287 0.98214287 0 0 0 31.875 74.507812 A 0.98214287 0.98214287 0 0 0 30.894531 73.525391 z M 30.462891 76.9375 A 0.98214287 0.98214287 0 0 0 29.480469 77.919922 A 0.98214287 0.98214287 0 0 0 30.462891 78.902344 A 0.98214287 0.98214287 0 0 0 31.445312 77.919922 A 0.98214287 0.98214287 0 0 0 30.462891 76.9375 z "
       transform="matrix(0.93750002,0,0,0.93750002,0,977.36223)"
       id="circle5435" />
  </g>
</svg>
